<?xml version="1.0" encoding="UTF-8"?>
<svg width="239px" height="179px" viewBox="0 0 239 179" version="1.1" xmlns="http://www.w3.org/2000/svg" xmlns:xlink="http://www.w3.org/1999/xlink">
    <!-- Generator: sketchtool 41.2 (35397) - http://www.bohemiancoding.com/sketch -->
    <title>6FF3471B-C0DD-4C57-BA5C-9261D49F65BE</title>
    <desc>Created with sketchtool.</desc>
    <defs>
        <rect id="path-1" x="0" y="0" width="238.532049" height="178.5"></rect>
        <mask id="mask-2" maskContentUnits="userSpaceOnUse" maskUnits="objectBoundingBox" x="0" y="0" width="238.532049" height="178.5" fill="white">
            <use xlink:href="#path-1"></use>
        </mask>
    </defs>
    <g id="768" stroke="none" stroke-width="1" fill="none" fill-rule="evenodd">
        <g id="Placeholders768" transform="translate(-474.000000, -178.000000)" stroke="#FFFFFF">
            <g id="image-placeholder-small_768" transform="translate(474.332816, 178.500000)">
                <use id="Rectangle-Copy-3" mask="url(#mask-2)" stroke-width="2" fill="#D8D8D8" xlink:href="#path-1"></use>
                <g id="Page-1-Copy" opacity="0.5" transform="translate(82.410305, 60.415385)" stroke-width="4">
                    <path d="M69.4528077,9.60871348 L58.8863346,9.60871348 L56.3547135,5.08476405 C55.8696373,3.7498112 54.9829222,2.59891847 53.694568,1.6310518 C52.4056957,0.664736204 51.0857287,0.180285848 49.7336306,0.180285848 L25.5026227,0.180285848 C24.1500063,0.180285848 22.8300393,0.664736204 21.5416852,1.6310518 C20.2533311,2.59891847 19.3660977,3.7498112 18.8815397,5.08476405 L16.3499187,9.60871348 L4.84490596,9.60871348 C2.27959907,9.60871348 0.180711619,11.7026558 0.180711619,14.2619186 L0.180711619,51.1427054 C0.180711619,53.7019683 2.27959907,55.7959106 4.84490596,55.7959106 L69.4528077,55.7959106 C72.0181146,55.7959106 74.1170021,53.7019683 74.1170021,51.1427054 L74.1170021,14.2619186 C74.1170021,11.7026558 72.0181146,9.60871348 69.4528077,9.60871348 Z" id="Stroke-1"></path>
                    <path d="M26.3177166,42.2104646 C29.3173118,45.2035095 32.9273982,46.6992565 37.1490123,46.6992565 C41.36959,46.6992565 44.9796764,45.2035095 47.9797898,42.2104646 C50.979385,39.2174196 52.4802191,35.6158389 52.4802191,31.4041712 C52.4802191,27.1935376 50.979385,23.5919568 47.9797898,20.5989119 C44.9796764,17.6058669 41.36959,16.1090859 37.1490123,16.1090859 C32.9273982,16.1090859 29.3173118,17.6058669 26.3177166,20.5989119 C23.3170849,23.5919568 21.8178055,27.1935376 21.8178055,31.4041712 C21.8178055,35.6158389 23.3170849,39.2174196 26.3177166,42.2104646 Z" id="Stroke-3"></path>
                </g>
            </g>
        </g>
    </g>
</svg>