<svg id="icon_verified" data-name="icon/verified" xmlns="http://www.w3.org/2000/svg" width="18.966" height="22.795" viewBox="0 0 18.966 22.795">
  <g id="shield" transform="translate(0)">
    <path id="Path_1366" data-name="Path 1366" d="M36.829.282A.912.912,0,0,1,37.5,0H54.565a.911.911,0,0,1,.667.282.913.913,0,0,1,.281.668v11.4a6.82,6.82,0,0,1-.5,2.53,9.45,9.45,0,0,1-1.23,2.226A13.743,13.743,0,0,1,52.039,19a20.4,20.4,0,0,1-1.874,1.529q-.859.608-1.793,1.15t-1.326.735q-.392.193-.629.3a.877.877,0,0,1-.771,0q-.237-.1-.629-.3t-1.327-.735q-.933-.541-1.792-1.15A20.383,20.383,0,0,1,40.023,19,13.741,13.741,0,0,1,38.275,17.1a9.462,9.462,0,0,1-1.23-2.226,6.825,6.825,0,0,1-.5-2.53V.95A.915.915,0,0,1,36.829.282Zm2.564,12.065q0,2.612,3.482,5.342a20.888,20.888,0,0,0,3.156,2.033V2.849H39.393Z" transform="translate(-36.548)" fill="#4cd964"/>
    <path id="Path_1367" data-name="Path 1367" d="M0,0H8.151V18.047L0,12.829Z" transform="translate(1.499 2.333)" fill="#4cd964"/>
  </g>
  <g id="correct-symbol" transform="translate(4.992 6.313)">
    <path id="Path_1368" data-name="Path 1368" d="M9.148,52.664l-.817-.817a.58.58,0,0,0-.817,0L3.57,55.795,1.8,54.022a.556.556,0,0,0-.409-.168.556.556,0,0,0-.409.168l-.817.817a.581.581,0,0,0,0,.817l2.176,2.176.817.817a.58.58,0,0,0,.817,0l.817-.817,4.351-4.351a.58.58,0,0,0,0-.817Z" transform="translate(0 -51.678)" fill="#fff"/>
  </g>
</svg>
